<svg id="Layer_1" data-name="Layer 1" xmlns="http://www.w3.org/2000/svg" viewBox="0 0 1295.35 1398.88"><defs><style>.cls-1{fill:none;}</style></defs><path class="cls-1" d="M649.69,924.35l571.88,327a59.71,59.71,0,0,1,30.07,51.83h0c0,46.17-50.15,74.87-90,51.48l-682.48-401a95,95,0,0,1-46.88-81.92h0a95,95,0,0,1,46.88-81.93l682.48-401c39.8-23.39,90,5.31,90,51.48v.07a59.71,59.71,0,0,1-30,51.78L649.59,820.74C609.58,843.72,609.64,901.45,649.69,924.35Z" transform="translate(-432.33 -380.56)"/><path class="cls-1" d="M1510.31,1340.83l-571.88,327a59.71,59.71,0,0,0-30.07,51.83h0c0,46.17,50.15,74.87,89.95,51.48l682.48-400.95a95,95,0,0,0,46.88-81.93h0a95,95,0,0,0-46.88-81.92l-682.48-401c-39.8-23.39-89.95,5.31-89.95,51.48v.07a59.71,59.71,0,0,0,30,51.78l572.08,328.53C1550.42,1260.2,1550.36,1317.93,1510.31,1340.83Z" transform="translate(-432.33 -380.56)"/></svg>